<?xml version="1.0" encoding="iso-8859-1"?>
<!-- Generator: Adobe Illustrator 19.0.0, SVG Export Plug-In . SVG Version: 6.00 Build 0)  -->
<svg version="1.1" id="Layer_1" xmlns="http://www.w3.org/2000/svg" xmlns:xlink="http://www.w3.org/1999/xlink" x="0px" y="0px"
	 viewBox="0 0 512 512" style="enable-background:new 0 0 512 512;" xml:space="preserve">
<path style="fill:#CEE8FA;" d="M165.812,17.172v94.462c0,13.688-11.097,24.785-24.785,24.785H44.298
	c-1.566,0-2.767-1.381-2.571-2.935c1.623-12.877,7.483-24.945,16.756-34.204l67.658-67.658c9.897-9.912,22.979-15.919,36.838-17.031
	C164.5,14.47,165.812,15.647,165.812,17.172z"/>
<g>
	<path style="fill:#2D527C;" d="M141.027,150.82H44.298c-4.874,0-9.519-2.097-12.742-5.754c-3.229-3.663-4.73-8.542-4.118-13.388
		c2.024-16.047,9.435-31.175,20.868-42.591l67.649-67.649c12.264-12.281,28.557-19.813,45.872-21.202
		c10.037-0.818,18.386,7.116,18.386,16.936v94.462C180.213,133.242,162.635,150.82,141.027,150.82z M59.868,122.015h81.159
		c5.725,0,10.381-4.658,10.381-10.381V31.901c-5.611,2.215-10.756,5.569-15.076,9.897l-67.664,67.665
		C65.018,113.108,62.046,117.374,59.868,122.015z"/>
	<path style="fill:#2D527C;" d="M282.042,450.662H90.359c-35.014,0-63.499-28.485-63.499-63.499V140.841
		c0-1.756,0.069-3.596,0.206-5.471c1.318-17.496,8.859-33.92,21.239-46.282l67.649-67.651C129.141,8.233,146.687,0.63,165.353,0.038
		C166.198,0.017,166.96,0,167.702,0h182.101c35.013,0,63.498,28.485,63.498,63.499v145.336c0,7.954-6.448,14.402-14.402,14.402
		s-14.402-6.448-14.402-14.402V63.499c0-19.131-15.563-34.694-34.694-34.694H167.702c-0.507,0-1.027,0.014-1.534,0.027
		c-11.211,0.356-21.843,4.962-29.836,12.966l-67.664,67.665c-7.508,7.496-12.076,17.45-12.874,28.036
		c-0.084,1.146-0.127,2.283-0.127,3.341v246.322c0,19.131,15.563,34.694,34.694,34.694h191.681c7.954,0,14.402,6.448,14.402,14.402
		S289.996,450.662,282.042,450.662z"/>
</g>
<path style="fill:#CEE8FA;" d="M363.479,437.713l50.114,50.114c13.027,13.027,34.345,13.027,47.372,0s13.027-34.345,0-47.372
	l-50.114-50.115"/>
<g>
	<path style="fill:#2D527C;" d="M437.281,512c-12.821,0-24.85-4.969-33.87-13.989l-50.115-50.114l20.369-20.369l50.114,50.115
		c3.58,3.58,8.375,5.552,13.502,5.552c5.126,0,9.922-1.972,13.502-5.552c7.445-7.445,7.445-19.56,0-27.004l-50.114-50.114
		l20.368-20.369l50.114,50.114c9.022,9.022,13.989,21.051,13.989,33.872c0,12.82-4.969,24.848-13.989,33.87
		C462.129,507.031,450.1,512,437.281,512z"/>
	<path style="fill:#2D527C;" d="M326.65,459.91c-29.533,0-57.301-11.502-78.185-32.385c-43.111-43.112-43.111-113.259,0-156.369
		c20.883-20.883,48.651-32.385,78.185-32.385c29.535,0,57.301,11.502,78.185,32.385c43.111,43.111,43.111,113.257,0,156.369
		C383.95,448.408,356.185,459.91,326.65,459.91z M326.65,267.574c-21.84,0-42.373,8.505-57.817,23.948
		c-31.88,31.88-31.88,83.753,0,115.634c15.444,15.444,35.976,23.948,57.817,23.948s42.373-8.505,57.817-23.948
		c31.881-31.881,31.881-83.753,0-115.634C369.024,276.079,348.49,267.574,326.65,267.574z"/>
	<path style="fill:#2D527C;" d="M326.65,394.504c-7.954,0-14.402-6.448-14.402-14.402v-61.524c0-7.954,6.448-14.402,14.402-14.402
		s14.402,6.448,14.402,14.402v61.524C341.053,388.055,334.605,394.504,326.65,394.504z"/>
	<path style="fill:#2D527C;" d="M357.412,363.742h-61.524c-7.954,0-14.402-6.448-14.402-14.402s6.448-14.402,14.402-14.402h61.524
		c7.954,0,14.402,6.448,14.402,14.402C371.815,357.294,365.367,363.742,357.412,363.742z"/>
	<path style="fill:#2D527C;" d="M109.213,439.272c-7.954,0-14.402-6.448-14.402-14.402V208.834c0-7.954,6.448-14.402,14.402-14.402
		c7.954,0,14.402,6.448,14.402,14.402V424.87C123.616,432.824,117.168,439.272,109.213,439.272z"/>
</g>
<g>
</g>
<g>
</g>
<g>
</g>
<g>
</g>
<g>
</g>
<g>
</g>
<g>
</g>
<g>
</g>
<g>
</g>
<g>
</g>
<g>
</g>
<g>
</g>
<g>
</g>
<g>
</g>
<g>
</g>
</svg>
