<?xml version="1.0" encoding="iso-8859-1"?>
<!-- Generator: Adobe Illustrator 19.0.0, SVG Export Plug-In . SVG Version: 6.00 Build 0)  -->
<svg version="1.1" id="Layer_1" xmlns="http://www.w3.org/2000/svg" xmlns:xlink="http://www.w3.org/1999/xlink" x="0px" y="0px"
	 viewBox="0 0 512.002 512.002" style="enable-background:new 0 0 512.002 512.002;" xml:space="preserve">
<path style="fill:#FFEEC0;" d="M13.795,330.941v24.439c0,26.762,21.695,48.458,48.458,48.458h387.494
	c26.762,0,48.458-21.695,48.458-48.458v-24.439H13.795L13.795,330.941z"/>
<g>
	<path style="fill:#FFC61B;" d="M449.747,404.528H62.253c-27.1,0-49.148-22.047-49.148-49.148v-24.439c0-0.381,0.309-0.69,0.69-0.69
		h484.411c0.381,0,0.69,0.309,0.69,0.69v24.439C498.896,382.479,476.849,404.528,449.747,404.528z M14.485,331.63v23.75
		c0,26.34,21.429,47.768,47.768,47.768h387.496c26.34,0,47.768-21.429,47.768-47.768v-23.75H14.485L14.485,331.63z"/>
	<path style="fill:#FFC61B;" d="M301.419,484.092h-90.836c-7.619,0-13.795-6.176-13.795-13.795v-71.152h27.59v57.357h63.246v-57.357
		h27.59v71.152C315.214,477.916,309.038,484.092,301.419,484.092z"/>
	<path style="fill:#FFC61B;" d="M449.747,417.633H62.253C27.927,417.633,0,389.707,0,355.379V90.164
		c0-34.326,27.927-62.253,62.253-62.253h387.496c34.326,0,62.253,27.927,62.253,62.253v265.215
		C512,389.707,484.075,417.633,449.747,417.633z M62.253,55.5C43.14,55.5,27.59,71.05,27.59,90.164v265.215
		c0,19.113,15.55,34.663,34.663,34.663h387.496c19.113,0,34.663-15.55,34.663-34.663V90.164c0-19.113-15.55-34.663-34.663-34.663
		H62.253V55.5z"/>
	<path style="fill:#FFC61B;" d="M361.975,484.092h-211.95c-7.619,0-13.795-6.176-13.795-13.795c0-7.619,6.176-13.795,13.795-13.795
		h211.95c7.619,0,13.795,6.176,13.795,13.795C375.77,477.916,369.594,484.092,361.975,484.092z"/>
	<path style="fill:#FFC61B;" d="M497.515,345.196h-71.29c-7.619,0-13.795-6.176-13.795-13.795s6.176-13.795,13.795-13.795h71.29
		c7.619,0,13.795,6.176,13.795,13.795S505.134,345.196,497.515,345.196z"/>
	<path style="fill:#FFC61B;" d="M358.297,345.196H14.485c-7.619,0-13.795-6.176-13.795-13.795s6.176-13.795,13.795-13.795h343.812
		c7.619,0,13.795,6.176,13.795,13.795S365.915,345.196,358.297,345.196z"/>
	<path style="fill:#FFC61B;" d="M208.993,246.825c-1.813,0-3.642-0.357-5.384-1.097l-76.322-32.38
		c-7.013-2.976-10.287-11.073-7.311-18.087c2.974-7.013,11.071-10.288,18.087-7.311l67.26,28.535l75.991-84.492
		c3.805-4.232,9.821-5.692,15.143-3.676l90.911,34.43c7.125,2.698,10.713,10.662,8.016,17.786
		c-2.7,7.125-10.662,10.715-17.787,8.015l-82.082-31.086l-76.26,84.79C216.581,245.227,212.826,246.825,208.993,246.825z"/>
</g>
<circle style="fill:#FFEEC0;" cx="294.8" cy="145.34" r="27.09"/>
<path style="fill:#FFC61B;" d="M294.805,186.232c-22.541,0-40.88-18.338-40.88-40.88s18.338-40.88,40.88-40.88
	s40.88,18.339,40.88,40.88S317.347,186.232,294.805,186.232z M294.805,132.061c-7.328,0-13.29,5.962-13.29,13.29
	c0,7.328,5.962,13.29,13.29,13.29c7.329,0,13.29-5.962,13.29-13.29S302.133,132.061,294.805,132.061z"/>
<circle style="fill:#FFEEC0;" cx="399.19" cy="186.34" r="27.09"/>
<path style="fill:#FFC61B;" d="M399.191,227.219c-22.541,0-40.88-18.338-40.88-40.88s18.338-40.88,40.88-40.88
	s40.88,18.338,40.88,40.88S421.732,227.219,399.191,227.219z M399.191,173.049c-7.328,0-13.29,5.962-13.29,13.29
	c0,7.328,5.962,13.29,13.29,13.29s13.29-5.962,13.29-13.29C412.481,179.012,406.519,173.049,399.191,173.049z"/>
<circle style="fill:#FFEEC0;" cx="112.82" cy="186.34" r="27.09"/>
<path style="fill:#FFC61B;" d="M112.81,227.219c-22.541,0-40.88-18.338-40.88-40.88s18.338-40.88,40.88-40.88
	s40.88,18.338,40.88,40.88S135.351,227.219,112.81,227.219z M112.81,173.049c-7.328,0-13.29,5.962-13.29,13.29
	c0,7.328,5.962,13.29,13.29,13.29s13.29-5.962,13.29-13.29S120.138,173.049,112.81,173.049z"/>
<circle style="fill:#FFEEC0;" cx="205.93" cy="227.73" r="27.09"/>
<path style="fill:#FFC61B;" d="M205.936,268.615c-22.541,0-40.88-18.338-40.88-40.88s18.338-40.88,40.88-40.88
	s40.88,18.339,40.88,40.88S228.479,268.615,205.936,268.615z M205.936,214.445c-7.328,0-13.29,5.962-13.29,13.29
	c0,7.328,5.962,13.29,13.29,13.29c7.328,0,13.29-5.962,13.29-13.29C219.227,220.406,213.264,214.445,205.936,214.445z"/>
<g>
</g>
<g>
</g>
<g>
</g>
<g>
</g>
<g>
</g>
<g>
</g>
<g>
</g>
<g>
</g>
<g>
</g>
<g>
</g>
<g>
</g>
<g>
</g>
<g>
</g>
<g>
</g>
<g>
</g>
</svg>
